# xmcd CD database file
# Copyright (C) 1996 Ti Kan
#
# Track frame offsets:
# 	150
# 	6820
# 	17127
# 	30025
# 	41967
# 	54055
# 	71247
# 	88645
# 	100412
# 	111522
# 	124217
# 	135832
# 	148380
# 	159372
# 	171892
# 	187362
# 	199380
# 	213192
# 	223977
# 	241197
#
# Disc length: 3440 seconds
#
# Revision: 1
# Processed by: cddbd v1.4b41PL1 Copyright (c) Steve Scherf et al.
# Submitted via: DiscPlay 3.4.1
#
DISCID=280d6e14
DTITLE=John Lee Hooker - The Best Of John Lee Hooker
DYEAR=1900
DGENRE=
TTITLE0=Talk That Talk (Spoken Intro)
TTITLE1=Dimples
TTITLE2=Hobo Blues
TTITLE3=Boogie Chillun
TTITLE4=Little Wheel
TTITLE5=Process
TTITLE6=Blues Before Sunrise
TTITLE7=Let's Make It
TTITLE8=No Shoes
TTITLE9=Drug Store Woman
TTITLE10=Boom Boom
TTITLE11=I'm In The Mood
TTITLE12=Maudie
TTITLE13=Crawlin' Kingsnake
TTITLE14=Tupelo
TTITLE15=Whiskey And Wimmen
TTITLE16=I'm Goin' Upstairs
TTITLE17=Want-Ad Blues
TTITLE18=Five Long Years
TTITLE19=My First Wife Left Me
EXTD=
EXTT0=
EXTT1=
EXTT2=
EXTT3=
EXTT4=
EXTT5=
EXTT6=
EXTT7=
EXTT8=
EXTT9=
EXTT10=
EXTT11=
EXTT12=
EXTT13=
EXTT14=
EXTT15=
EXTT16=
EXTT17=
EXTT18=
EXTT19=
PLAYORDER=
